<?xml version="1.0" encoding="UTF-8" standalone="no"?>
<!DOCTYPE svg PUBLIC "-//W3C//DTD SVG 1.1//EN"
 "http://www.w3.org/Graphics/SVG/1.1/DTD/svg11.dtd">
<!-- Generated by graphviz version 2.26.3 (20100126.1600)
 -->
<!-- Title: G Pages: 1 -->
<svg width="688pt" height="78pt"
 viewBox="0.00 0.00 688.00 78.00" xmlns="http://www.w3.org/2000/svg" xmlns:xlink="http://www.w3.org/1999/xlink">
<g id="graph1" class="graph" transform="scale(1 1) rotate(0) translate(4 74)">
<title>G</title>
<polygon fill="white" stroke="white" points="-4,5 -4,-74 685,-74 685,5 -4,5"/>
<g id="graph2" class="cluster"><title>cluster0</title>
<polygon fill="none" stroke="black" points="8,-8 8,-62 394,-62 394,-8 8,-8"/>
</g>
<g id="graph3" class="cluster"><title>cluster1</title>
<polygon fill="none" stroke="black" points="402,-8 402,-62 616,-62 616,-8 402,-8"/>
</g>
<!-- a -->
<g id="node2" class="node"><title>a</title>
<ellipse fill="none" stroke="black" cx="359" cy="-35" rx="27" ry="18.3848"/>
<text text-anchor="middle" x="359" y="-31.4" font-family="Times Roman,serif" font-size="14.00">a</text>
</g>
<!-- ndash -->
<g id="node3" class="node"><title>ndash</title>
<ellipse fill="none" stroke="black" cx="273" cy="-35" rx="41.0122" ry="18.3848"/>
<text text-anchor="middle" x="273" y="-31.4" font-family="Times Roman,serif" font-size="14.00">ndash</text>
</g>
<!-- b -->
<g id="node4" class="node"><title>b</title>
<ellipse fill="none" stroke="black" cx="187" cy="-35" rx="27" ry="18.3848"/>
<text text-anchor="middle" x="187" y="-31.4" font-family="Times Roman,serif" font-size="14.00">b</text>
</g>
<!-- c -->
<g id="node5" class="node"><title>c</title>
<ellipse fill="none" stroke="black" cx="115" cy="-35" rx="27" ry="18.3848"/>
<text text-anchor="middle" x="115" y="-31.4" font-family="Times Roman,serif" font-size="14.00">c</text>
</g>
<!-- d -->
<g id="node6" class="node"><title>d</title>
<ellipse fill="none" stroke="black" cx="43" cy="-35" rx="27" ry="18.3848"/>
<text text-anchor="middle" x="43" y="-31.4" font-family="Times Roman,serif" font-size="14.00">d</text>
</g>
<!-- e -->
<g id="node8" class="node"><title>e</title>
<ellipse fill="none" stroke="black" cx="581" cy="-35" rx="27" ry="18.3848"/>
<text text-anchor="middle" x="581" y="-31.4" font-family="Times Roman,serif" font-size="14.00">e</text>
</g>
<!-- g -->
<g id="node9" class="node"><title>g</title>
<ellipse fill="none" stroke="black" cx="509" cy="-35" rx="27" ry="18.3848"/>
<text text-anchor="middle" x="509" y="-31.4" font-family="Times Roman,serif" font-size="14.00">g</text>
</g>
<!-- f -->
<g id="node10" class="node"><title>f</title>
<ellipse fill="none" stroke="black" cx="437" cy="-35" rx="27" ry="18.3848"/>
<text text-anchor="middle" x="437" y="-31.4" font-family="Times Roman,serif" font-size="14.00">f</text>
</g>
<!-- h -->
<g id="node11" class="node"><title>h</title>
<ellipse fill="none" stroke="black" cx="653" cy="-35" rx="27" ry="18.3848"/>
<text text-anchor="middle" x="653" y="-31.4" font-family="Times Roman,serif" font-size="14.00">h</text>
</g>
</g>
</svg>
